<?xml version="1.0" encoding="UTF-8" standalone="no"?>
<!-- Created with Inkscape (http://www.inkscape.org/) -->

<svg
   width="210mm"
   height="297mm"
   viewBox="0 0 210 297"
   version="1.1"
   id="svg5"
   inkscape:version="1.1.1 (3bf5ae0d25, 2021-09-20)"
   sodipodi:docname="PointingHand.svg"
   xmlns:inkscape="http://www.inkscape.org/namespaces/inkscape"
   xmlns:sodipodi="http://sodipodi.sourceforge.net/DTD/sodipodi-0.dtd"
   xmlns="http://www.w3.org/2000/svg"
   xmlns:svg="http://www.w3.org/2000/svg">
  <sodipodi:namedview
     id="namedview7"
     pagecolor="#ffffff"
     bordercolor="#666666"
     borderopacity="1.0"
     inkscape:pageshadow="2"
     inkscape:pageopacity="0.0"
     inkscape:pagecheckerboard="true"
     inkscape:document-units="mm"
     showgrid="false"
     inkscape:zoom="0.64052329"
     inkscape:cx="445.7293"
     inkscape:cy="455.09665"
     inkscape:window-width="1920"
     inkscape:window-height="1017"
     inkscape:window-x="-8"
     inkscape:window-y="-8"
     inkscape:window-maximized="1"
     inkscape:current-layer="layer1" />
  <defs
     id="defs2" />
  <g
     inkscape:label="Layer 1"
     inkscape:groupmode="layer"
     id="layer1">
    <g
       id="g9699">
      <path
         style="fill:none;stroke:#000000;stroke-width:4.665;stroke-linecap:round;stroke-linejoin:miter;stroke-miterlimit:4;stroke-dasharray:none;stroke-opacity:1"
         d="m 81.492335,148.08822 0.584174,-4.08922 c 0,0 -0.421154,-56.923785 0.292087,-78.571462 0.267668,-8.12404 8.051435,-27.724767 18.985664,-26.872026 10.28826,0.802363 13.95771,14.343683 13.7281,27.748288 -0.1712,9.994705 -1.12914,27.170396 -0.12161,40.02548 0.81704,10.42452 5.0871,19.8524 5.0871,19.8524"
         id="path1099"
         sodipodi:nodetypes="ccsassc" />
      <path
         style="fill:none;stroke:#000000;stroke-width:4.665;stroke-linecap:round;stroke-linejoin:miter;stroke-miterlimit:4;stroke-dasharray:none;stroke-opacity:1"
         d="m 115.95863,96.972958 c 0,0 18.03409,-0.203349 24.24324,5.257572 6.9834,6.14187 3.66139,14.62321 9.34679,26.28785"
         id="path2710"
         sodipodi:nodetypes="cac" />
      <path
         style="fill:none;stroke:#000000;stroke-width:4.665;stroke-linecap:butt;stroke-linejoin:miter;stroke-miterlimit:4;stroke-dasharray:none;stroke-opacity:1"
         d="m 144.87526,110.70105 c 0,0 12.08184,2.25467 16.0648,6.42593 6.762,7.08169 8.73008,17.99897 9.63888,27.74828 0.97766,10.48814 -0.45038,21.60331 -4.6734,31.25333 -3.30404,7.55006 -8.91004,14.30306 -15.48062,19.27776 -6.74748,5.10863 -15.01847,8.54207 -23.36698,9.93096 -7.99232,1.32963 -16.46962,0.53134 -24.24324,-1.75252 -7.022864,-2.06329 -13.465057,-6.06651 -19.277755,-10.51514 -5.030975,-3.85036 -8.324395,-9.61616 -13.143926,-13.7281 -3.513342,-2.99752 -7.20377,-5.93892 -11.391399,-7.88635 -6.403409,-2.97787 -14.262605,-2.13855 -20.446106,-5.54966 -4.283819,-2.36315 -9.941337,-5.1158 -10.807229,-9.93097 -0.94791,-5.27127 3.5157,-10.52448 7.302183,-14.31227 3.632571,-3.63382 8.61718,-6.48213 13.728099,-7.01009 5.521131,-0.57033 11.050674,2.00082 16.064796,4.38131 3.783024,1.79602 10.223053,7.30218 10.223053,7.30218 2.005649,0.9522 6.425919,1.75252 6.425919,1.75252"
         id="path5043"
         sodipodi:nodetypes="caaaaaaaaaaaaaasc" />
      <path
         style="fill:none;stroke:#000000;stroke-width:4.665;stroke-linecap:butt;stroke-linejoin:miter;stroke-miterlimit:4;stroke-dasharray:none;stroke-opacity:1"
         d="m 143.70691,200.37183 c 0,0 2.47634,4.81165 2.04461,7.30218 -0.48909,2.82144 -2.76,5.18375 -4.96548,7.0101 -2.88585,2.38975 -6.57011,3.83968 -10.22305,4.67339 -4.74703,1.08342 -9.74762,0.6387 -14.60436,0.29209 -6.00312,-0.42842 -12.20395,-0.75038 -17.817323,-2.92087 -4.004932,-1.54856 -8.070287,-3.70152 -10.807229,-7.0101 -1.809318,-2.18721 -3.215007,-5.04777 -3.212959,-7.88635 0.0017,-2.31428 2.628786,-6.42592 2.628786,-6.42592"
         id="path7100"
         sodipodi:nodetypes="caaaaaaac" />
      <path
         style="fill:#ffffff;stroke:#000000;stroke-width:19.4643;stroke-linecap:round;stroke-linejoin:round;stroke-miterlimit:4;stroke-dasharray:none;stroke-opacity:1"
         d="m 430.54117,768.23486 c -34.47423,-4.96526 -52.68003,-10.79462 -77.00815,-24.65748 -24.61604,-14.02689 -37.79758,-25.04407 -58.27386,-48.7055 -14.98007,-17.31028 -23.66046,-25.54856 -39.38555,-37.37962 -22.0976,-16.62555 -35.17132,-22.3269 -62.21703,-27.13237 -26.47574,-4.7042 -33.72154,-6.80159 -46.13367,-13.35391 -25.79403,-13.61661 -33.26491,-21.20798 -33.26304,-33.79951 0.002,-10.91928 8.85579,-25.19103 25.5913,-41.24981 10.18116,-9.76948 18.9008,-15.527 30.30157,-20.00794 6.63387,-2.60737 9.17323,-2.98753 20.27893,-3.03601 11.16088,-0.0487 13.82969,0.32839 22.07903,3.11978 21.56896,7.29844 38.03221,16.52279 57.44304,32.1853 9.20391,7.42661 13.6747,9.53935 26.89227,12.70835 11.68957,2.80266 14.15954,2.72069 17.45967,-0.57944 5.09537,-5.09536 5.2854,-10.58957 5.36539,-155.12469 0.0813,-146.75805 0.59656,-168.98019 4.23586,-182.65681 10.57846,-39.75421 36.19431,-73.45998 55.82842,-73.45998 21.32841,0 36.29699,19.70355 43.23844,56.91597 1.84731,9.90321 1.99363,15.35086 1.49564,55.6871 -0.86681,70.21137 -0.48289,124.0367 0.98402,137.96113 2.29991,21.83145 10.39221,53.81642 18.22075,72.01787 3.81368,8.86684 10.94555,11.2706 16.61588,5.60027 3.8023,-3.80231 3.48866,-6.95935 -2.11446,-21.28377 -8.3525,-21.35323 -14.01358,-49.51649 -15.28587,-76.04557 l -0.49687,-10.36044 12.28935,0.75966 c 24.56608,1.51854 46.31501,5.62531 58.62731,11.0704 7.01413,3.10198 15.15978,10.28551 18.77228,16.55499 3.98196,6.9107 5.83169,13.52816 9.36756,33.51276 4.84064,27.35908 11.77746,48.93622 17.71617,55.10653 3.39093,3.52316 8.78551,3.35519 12.5309,-0.39019 3.48749,-3.48748 3.7484,-7.6648 0.83805,-13.41686 -3.98743,-7.88077 -7.93258,-20.47664 -10.56892,-33.74397 -1.46206,-7.35776 -2.46342,-13.5726 -2.22527,-13.81077 0.7754,-0.77538 19.63178,5.49655 27.73119,9.22383 9.59518,4.41561 16.4178,10.51387 23.23457,20.76777 10.86535,16.34383 18.02651,38.32769 22.59625,69.36771 3.28458,22.31049 3.54433,58.15314 0.55493,76.5738 -7.38615,45.51334 -23.74632,78.91564 -52.7189,107.63529 -25.76708,25.54213 -59.31781,43.22397 -96.50355,50.85913 -10.67072,2.19095 -45.29606,3.8341 -54.09363,2.567 z"
         id="path9341"
         transform="scale(0.26458333)" />
    </g>
    <path
       style="fill:#ffffff;stroke:#000000;stroke-width:19.4643;stroke-linecap:round;stroke-linejoin:round;stroke-miterlimit:4;stroke-dasharray:none;stroke-opacity:1"
       d="m 428.88524,820.20492 c -36.413,-3.04585 -54.74126,-7.81654 -74.06659,-19.27893 -19.41585,-11.51608 -31.45244,-32.3583 -25.60138,-44.33064 l 1.96824,-4.02737 12.11947,7.06611 c 16.32008,9.51522 33.29411,16.50864 50.70694,20.89161 46.30853,11.65628 91.70822,8.88603 133.39184,-8.13947 l 10.51219,-4.29367 1.93881,6.40346 c 2.33788,7.72146 1.74123,11.56664 -2.82438,18.20253 -7.42247,10.78821 -23.13847,20.78721 -40.80409,25.96083 -6.94938,2.03522 -11.56091,2.47657 -28.70274,2.747 -11.23271,0.17721 -28.61995,-0.36345 -38.63831,-1.20146 z"
       id="path9777"
       transform="scale(0.26458333)"
       inkscape:export-filename="E:\Files\VentureGames\Projects\Unity\ShapeRotateGame\ShapeRotate\Files\UI\PointingHand.png"
       inkscape:export-xdpi="96"
       inkscape:export-ydpi="96" />
  </g>
</svg>
