<?xml version="1.0" encoding="UTF-8" standalone="no"?>
<!-- Created with Inkscape (http://www.inkscape.org/) -->

<svg
   width="210mm"
   height="297mm"
   viewBox="0 0 210 297"
   version="1.1"
   id="svg5"
   inkscape:version="1.1.1 (3bf5ae0d25, 2021-09-20)"
   sodipodi:docname="Icon_Locked.svg"
   inkscape:export-filename="E:\Files\VentureGames\Projects\Unity\ShapeRotateGame\ShapeRotate\Files\UI\Icons\Icon_Locked.png"
   inkscape:export-xdpi="96"
   inkscape:export-ydpi="96"
   xmlns:inkscape="http://www.inkscape.org/namespaces/inkscape"
   xmlns:sodipodi="http://sodipodi.sourceforge.net/DTD/sodipodi-0.dtd"
   xmlns="http://www.w3.org/2000/svg"
   xmlns:svg="http://www.w3.org/2000/svg">
  <sodipodi:namedview
     id="namedview7"
     pagecolor="#ffffff"
     bordercolor="#666666"
     borderopacity="1.0"
     inkscape:pageshadow="2"
     inkscape:pageopacity="0.0"
     inkscape:pagecheckerboard="true"
     inkscape:document-units="mm"
     showgrid="false"
     inkscape:zoom="0.90583672"
     inkscape:cx="72.308837"
     inkscape:cy="304.1387"
     inkscape:window-width="1920"
     inkscape:window-height="1017"
     inkscape:window-x="-8"
     inkscape:window-y="-8"
     inkscape:window-maximized="1"
     inkscape:current-layer="layer1" />
  <defs
     id="defs2">
    <clipPath
       clipPathUnits="userSpaceOnUse"
       id="clipPath6867">
      <path
         id="path6869"
         style="fill:#ff0000;fill-opacity:1;fill-rule:nonzero;stroke:none;stroke-width:0.264583"
         d="m 40.657984,19.947619 v 80.615751 c 1.925317,-0.30524 3.764473,-0.21537 6.105054,-0.19637 0.667128,0.01 0.837324,0.0192 0.939477,0.0279 0.179192,-0.007 0.15752,-0.009 0.533299,-0.0196 1.140648,-0.01 2.281346,0.005 3.422015,0.003 2.260778,-0.003 4.521753,-10e-4 6.782531,-10e-4 -0.755063,1.27906 1.044591,-0.021 1.629875,-0.0951 0.01667,-0.535901 0.03793,-0.559097 0.06253,-0.015 0.07702,10e-4 0.125355,0.0319 0.12609,0.11007 0.01746,1.87143 0.02828,3.6703 0.03979,5.47408 0.02421,-1.99968 0.0337,-3.28173 0.06201,-5.47408 0.0013,-0.099 0.198128,0 0.297138,0 0.335322,0 0.670303,-10e-6 1.005623,0 1.055512,3e-5 2.111221,0 3.166731,0 2.460922,-0.0633 4.534353,0.31295 7.152019,0.75964 0.111016,0.019 0.325937,0.0787 0.492476,0.11627 0.657178,0.0712 1.313228,0.14977 1.963188,0.26872 0.123888,0.0227 0.332663,0.0689 0.506431,0.10491 0.438256,-0.0121 0.04697,0.002 0.927592,-0.0279 0.996767,-0.0303 1.993265,0.016 2.989479,0.032 0.315138,0.005 -0.09475,-0.11599 0.587563,-0.01 2.296771,0.3574 4.585806,0.76076 6.878648,1.14257 -0.03261,-0.0111 -0.06502,-0.0231 -0.09767,-0.0341 -0.05091,-0.0171 -0.174151,-0.042 -0.138491,-0.0822 0.02408,-0.0272 0.08554,-0.0401 0.145209,-0.0481 -0.216202,0.0126 -0.432324,0.0258 -0.648539,0.0382 -0.25613,0.0147 0.511408,-0.055 0.767913,-0.0501 0.0542,10e-4 -0.03022,-2e-5 -0.119374,0.0119 1.134242,-0.066 2.26818,-0.13373 3.402377,-0.2005 2.089346,-0.0331 4.088498,0.0632 6.101437,0.0501 2.675322,-0.0187 5.350505,-0.007 8.025875,-0.006 1.93626,-7.9e-4 3.87266,-10e-4 5.80894,-10e-4 1.81917,2.7e-4 3.63837,5e-5 5.45755,0 0.86055,2e-5 1.7212,2e-5 2.58175,0 h 2.14819 c 0.22353,-0.12014 0.43066,-0.15159 0.6041,0 h 0.53175 c 0.21265,-0.14852 0.49219,-0.3327 0.64441,-0.44906 0.24414,-0.10236 0.49213,-0.19639 0.73845,-0.29404 0.3752,-0.22435 0.75266,-0.44531 1.13585,-0.65578 0.4588,-0.25199 1.69846,-0.67851 2.01176,-0.73742 0.39514,-0.2367 0.79942,-0.458438 1.21647,-0.658873 0.47985,-0.230621 0.98264,-0.389961 1.495,-0.520382 0.25504,-0.110969 0.51111,-0.218935 0.7772,-0.298173 1.39414,-0.415133 2.7712,-0.957926 4.21266,-1.143084 0.10789,-0.08396 0.21244,-0.173294 0.32091,-0.256313 0.96835,-0.09947 1.93414,-0.227893 2.90267,-0.325046 1.19856,-0.565205 2.42065,-1.021545 3.7269,-1.091406 8.38745,-0.448585 17.57559,4.061297 12.2742,1.522389 -3.22183,-1.682441 -6.02547,-1.613324 -9.28782,-1.615924 -0.16211,-1.3e-4 0.32276,-0.02937 0.48474,-0.03617 0.50754,-0.02135 1.01527,-0.03855 1.5229,-0.05788 0.91643,0.01259 1.83271,0.01 2.74918,0.0088 0.69982,-0.0024 1.3998,-5.29e-4 2.09962,-5.29e-4 0.89966,1.74e-4 1.79939,-5.29e-4 2.69906,0 0.65463,3.4e-5 1.30908,8e-6 1.96371,0 0.54969,2e-6 1.09931,2e-6 1.64899,0 h 1.23455 c 4.45187,2e-6 8.3891,0.513384 11.87163,1.385964 V 19.947619 Z M 122.28142,101.6987 c -0.40442,0.24183 -0.8042,0.49157 -1.20303,0.74311 h 0.37363 c 0.0991,-0.0159 0.199,-0.027 0.30024,-0.0274 0.0836,-2.7e-4 0.17488,0.002 0.25941,0.002 0.38625,-0.24171 1.00313,-0.58269 1.73323,-0.97255 0.44635,-0.32854 0.90209,-0.64129 1.36943,-0.93483 -0.92208,0.44461 -1.87994,0.81181 -2.83291,1.18959 z m -0.26975,0.71779 c -0.013,0.008 -0.0289,0.0174 -0.0413,0.0253 h 0.32401 c 0.0198,-0.007 0.0396,-0.0152 0.0594,-0.0227 -0.1129,-5.3e-4 -0.23063,-0.003 -0.3421,-0.003 z m -0.0413,0.0253 h -0.51831 c -0.25901,0.0415 -0.51077,0.13068 -0.75655,0.24288 -0.059,0.0376 -0.11824,0.075 -0.17725,0.11265 -0.058,0.19736 -0.36751,0.3474 -0.76429,0.48473 0.25402,-0.16281 0.51,-0.32238 0.76429,-0.48473 0.003,-0.009 0.007,-0.0184 0.009,-0.0279 -0.13169,0.0658 -0.26192,0.13145 -0.39016,0.20309 -0.17952,0.12052 -0.34168,0.23159 -0.52762,0.35553 0.0468,-0.0153 0.0992,-0.0304 0.14418,-0.046 -0.15045,0.0964 -0.30258,0.18967 -0.4532,0.28577 0.0223,-0.005 0.0444,-0.0107 0.0667,-0.016 0.74575,-0.28287 1.4908,-0.56754 2.23707,-0.84904 0.0429,-0.0528 0.19838,-0.15428 0.36639,-0.26097 z m -2.60346,1.11001 c -0.035,0.0133 -0.0699,0.027 -0.1049,0.0403 -0.26559,0.16934 -0.53182,0.33716 -0.79892,0.50384 -1.19032,0.80593 -2.03362,1.42725 -1.14773,1.12861 1.28351,-0.43267 2.50876,-1.00977 3.71347,-1.6371 0.21104,-0.17272 0.42361,-0.34308 0.63458,-0.51574 -0.72965,0.12925 -1.50161,0.29146 -2.2965,0.48008 z m -0.90382,0.54415 c 0.21865,-0.14804 0.45538,-0.30551 0.68988,-0.46199 -0.18859,0.0716 -0.37683,0.14416 -0.56534,0.21601 -0.51645,0.3002 -1.02442,0.61408 -1.52652,0.9369 -0.14435,0.13406 -0.28965,0.26694 -0.43356,0.40152 0.62163,-0.34692 1.2312,-0.71532 1.83554,-1.09244 z m -1.83554,1.09244 c -0.14365,0.0802 -0.28599,0.16301 -0.43099,0.24081 -0.13415,0.072 -0.15126,0.0631 -0.12299,0.0233 -0.25619,0.18088 -0.51334,0.36044 -0.76171,0.5519 -0.35935,0.27703 -0.95936,0.86763 -1.48776,1.39216 0.1192,9e-5 0.2384,5.3e-4 0.3576,5.3e-4 0.83003,-0.71859 1.64285,-1.45776 2.44585,-2.20865 z m -0.55398,0.26407 c 0.32424,-0.22893 0.65334,-0.45072 0.98754,-0.66559 0.21607,-0.20068 0.43095,-0.40275 0.64905,-0.601 -0.008,0.003 -0.0158,0.006 -0.0238,0.009 -0.62695,0.45165 -1.51167,1.1147 -1.61283,1.25728 z m 1.61282,-1.25729 c 0.0223,-0.016 0.0484,-0.0364 0.0698,-0.0517 0.0845,-0.0766 0.16623,-0.15646 0.25114,-0.23254 -0.44813,0.16963 -0.86924,0.40964 -1.28881,0.65474 0.32208,-0.12497 0.6454,-0.24666 0.9679,-0.37052 z m 0.0698,-0.0517 c -0.0154,0.014 -0.0306,0.0284 -0.046,0.0424 0.29238,-0.11226 0.58482,-0.22435 0.87747,-0.3359 0.11184,-0.065 0.22469,-0.12797 0.33693,-0.19224 -0.17975,0.0451 -0.35425,0.0796 -0.53485,0.12816 -0.07,0.0188 -0.13768,0.044 -0.20619,0.0667 -0.0371,0.021 -0.0846,0.0393 -0.11679,0.0615 -0.0708,0.0488 -0.21565,0.16147 -0.31057,0.22944 z m 1.1684,-0.48576 c 0.10073,-0.0253 0.19943,-0.0476 0.29973,-0.0718 0.13124,-0.0875 0.25342,-0.17018 0.38498,-0.25787 -0.0767,0.0251 -0.15686,0.0506 -0.23667,0.0755 -0.14955,0.0842 -0.29898,0.16891 -0.44804,0.25424 z m 1.60249,-0.88831 c 0.0563,-0.0281 0.11148,-0.0587 0.16846,-0.0847 0.12751,-0.0812 0.2551,-0.16227 0.38292,-0.24288 h -0.17983 c -0.12311,0.086 -0.23592,0.16646 -0.3731,0.25993 0.003,0.0229 0.005,0.046 0.002,0.0677 z m 11.97859,-4.585253 c -1.17333,0.196453 -2.54622,0.4773 -3.50676,0.75551 1.00652,-0.179922 2.0431,-0.27222 3.06855,-0.40566 0.14504,-0.11826 0.29231,-0.232968 0.43821,-0.34985 z m -63.232826,2.685103 c -0.09879,-0.005 -0.0995,8e-4 0.05684,0.0243 0.801629,0.12116 1.609598,0.1989 2.416907,0.28009 -0.174921,-0.0465 -0.349194,-0.0964 -0.525033,-0.13798 -0.47302,-0.0356 -1.652331,-0.15077 -1.948718,-0.1664 z m 1.922881,0.32453 c -0.150881,0.002 -0.154681,0.027 0.07648,0.0868 1.763059,0.45652 3.559929,0.76293 5.355747,1.07487 -0.578684,-0.18662 -1.162932,-0.37487 -1.802474,-0.56741 -0.450152,-0.13549 -1.207419,-0.12526 -0.893488,-0.13126 -0.0173,0.002 -0.0393,0.003 -0.102835,-0.005 -0.602023,-0.0801 -1.189742,-0.23846 -1.777151,-0.3979 -0.37714,-0.0372 -0.698646,-0.0619 -0.856279,-0.06 z m 1.675866,0.15297 c 0.567563,0.14015 1.10686,0.28169 1.082622,0.30954 0.06326,-0.001 0.439941,-0.0142 0.657322,-0.0196 -0.160123,-0.0459 -0.321217,-0.0873 -0.484206,-0.11628 -0.292692,-0.052 -0.765841,-0.11456 -1.255738,-0.17363 z m 54.286609,1.21129 c -1.84083,0.43114 -3.68084,0.86498 -5.52008,1.30225 -1.13675,1.09226 -2.29847,2.48481 -3.00292,3.5388 0.80463,-5.3e-4 1.60923,-5.3e-4 2.41381,-5.3e-4 2.22113,-1.40769 4.26823,-3.09483 6.28385,-4.83226 -0.0587,-0.003 -0.11583,-0.006 -0.17466,-0.008 z m -6.85488,1.62006 c -0.30314,0.073 -0.60708,0.14275 -0.91002,0.21652 -0.50516,0.5271 -2.12648,1.9812 -1.51567,1.5813 0.83973,-0.54979 1.63827,-1.16529 2.42569,-1.79782 z" />
    </clipPath>
  </defs>
  <g
     inkscape:label="Layer 1"
     inkscape:groupmode="layer"
     id="layer1">
    <path
       id="rect868"
       style="opacity:1;stroke-width:11.3386;fill:#ffffff;fill-opacity:1"
       d="M 257.92773 327.85742 C 158.8803 327.85742 79.140625 407.59515 79.140625 506.64258 L 79.140625 784.48828 C 79.140625 883.53575 158.8803 963.27539 257.92773 963.27539 L 535.77344 963.27539 C 634.82087 963.27539 714.55859 883.53575 714.55859 784.48828 L 714.55859 506.64258 C 714.55859 407.59515 634.82087 327.85742 535.77344 327.85742 L 257.92773 327.85742 z M 396.84961 538.62305 A 64.790773 66.641933 0 0 1 461.64062 605.26562 A 64.790773 66.641933 0 0 1 424.95312 665.23047 L 424.95312 740.19531 C 424.95312 757.71821 412.41813 771.82617 396.84961 771.82617 C 381.28109 771.82617 368.74805 757.71821 368.74805 740.19531 L 368.74805 664.41211 A 64.790773 66.641933 0 0 1 332.06055 605.26562 A 64.790773 66.641933 0 0 1 396.84961 538.62305 z "
       transform="scale(0.26458333)" />
    <path
       id="rect3609"
       style="fill:none;stroke:#ffffff;stroke-width:28.2963;fill-opacity:1;stroke-opacity:1"
       d="m 103.03854,34.095711 h 3.92292 c 26.72066,0 48.23224,21.511575 48.23224,48.232231 v 15.681404 c 0,26.720654 -21.51158,48.232234 -48.23224,48.232234 h -3.92292 c -26.72066,0 -48.232235,-21.51158 -48.232235,-48.232234 V 82.327942 c 0,-26.720656 21.511575,-48.232231 48.232235,-48.232231 z"
       clip-path="url(#clipPath6867)" />
  </g>
</svg>
